<?xml version="1.0" encoding="UTF-8"?>
<svg width="190px" height="108px" viewBox="0 0 190 108" version="1.1" xmlns="http://www.w3.org/2000/svg" xmlns:xlink="http://www.w3.org/1999/xlink">
    <!-- Generator: sketchtool 52.6 (67491) - http://www.bohemiancoding.com/sketch -->
    <title>3529BCA1-C119-4D7F-A434-1AB0B2360ABF</title>
    <desc>Created with sketchtool.</desc>
    <g id="Page-1" stroke="none" stroke-width="1" fill="none" fill-rule="evenodd">
        <g id="Mes-comptes_details-Edit-libellé" transform="translate(-106.000000, -256.000000)">
            <g id="Group-31" transform="translate(21.000000, 237.000000)">
                <g id="Group-24" transform="translate(85.000000, 11.000000)">
                    <path d="M40.462963,87.962963 C37.0623208,87.962963 34.3055556,85.2061978 34.3055556,81.8055556 C34.3055556,78.4049133 37.0623208,75.6481481 40.462963,75.6481481 L6.15740741,75.6481481 C2.7567652,75.6481481 4.1645856e-16,72.891383 0,69.4907407 C-4.1645856e-16,66.0900985 2.7567652,63.3333333 6.15740741,63.3333333 L41.3425926,63.3333333 C44.7432348,63.3333333 47.5,60.5765681 47.5,57.1759259 C47.5,53.7752837 44.7432348,51.0185185 41.3425926,51.0185185 L19.3518519,51.0185185 C15.9512096,51.0185185 13.1944444,48.2617533 13.1944444,44.8611111 C13.1944444,41.4604689 15.9512096,38.7037037 19.3518519,38.7037037 L54.537037,38.7037037 C51.1363948,38.7037037 48.3796296,35.9469385 48.3796296,32.5462963 C48.3796296,29.1456541 51.1363948,26.3888889 54.537037,26.3888889 L104.675926,26.3888889 C108.076568,26.3888889 110.833333,29.1456541 110.833333,32.5462963 C110.833333,35.9469385 108.076568,38.7037037 104.675926,38.7037037 L160.972222,38.7037037 C164.372864,38.7037037 167.12963,41.4604689 167.12963,44.8611111 C167.12963,48.2617533 164.372864,51.0185185 160.972222,51.0185185 L180.324074,51.0185185 C183.724716,51.0185185 186.481481,53.7752837 186.481481,57.1759259 C186.481481,60.5765681 183.724716,63.3333333 180.324074,63.3333333 L163.611111,63.3333333 C160.210469,63.3333333 157.453704,66.0900985 157.453704,69.4907407 C157.453704,72.891383 160.210469,75.6481481 163.611111,75.6481481 L168.888889,75.6481481 C172.289531,75.6481481 175.046296,78.4049133 175.046296,81.8055556 C175.046296,85.2061978 172.289531,87.962963 168.888889,87.962963 L40.462963,87.962963 Z M183.842593,87.962963 C180.44195,87.962963 177.685185,85.2061978 177.685185,81.8055556 C177.685185,78.4049133 180.44195,75.6481481 183.842593,75.6481481 C187.243235,75.6481481 190,78.4049133 190,81.8055556 C190,85.2061978 187.243235,87.962963 183.842593,87.962963 Z" id="BG" fill-opacity="0.1" fill="#5C4EA0"></path>
                    <path d="M91.8103408,102.228096 C94.9273227,102.847422 98.1269555,102.954536 100.442194,102.782294 M104.23617,102.444444 C106.243802,102.206072 108.208273,101.826345 110.119425,101.315455 C114.322784,100.191812 118.268225,98.433699 121.847684,96.149557 C125.467799,93.8394723 128.713571,90.9913417 131.473215,87.7173437 C133.881268,84.8604664 135.919172,81.6793234 137.512653,78.2484479 C139.093552,74.8446625 140.237019,71.1950727 140.870526,67.3724598 C141.248023,65.0946235 141.444444,62.7553504 141.444444,60.3700401 C141.444444,56.8679902 141.021051,53.4651752 140.22283,50.21033 C139.365167,46.7131052 138.074772,43.3867084 136.411888,40.2915928 C134.32935,36.4153793 131.662593,32.9019111 128.529946,29.869932 C126.092558,27.5108697 123.37313,25.4432901 120.427399,23.7231241 C117.111095,21.7865613 113.507968,20.2903192 109.697545,19.3142036 C106.347951,18.4561384 102.838169,18 99.2222222,18 C94.6781052,18 90.3016511,18.7203632 86.2000749,20.053499 C82.1844497,21.3586983 78.4323027,23.2512573 75.0442488,25.6302087 C71.5536615,28.0811551 68.449538,31.048379 65.8419077,34.4214661 C62.4621073,38.79339 59.9163783,43.8471339 58.4442965,49.3422836 C57.5023539,52.8584706 57,56.5553844 57,60.3700401 C57,66.4258562 58.2660314,72.1849397 60.5469797,77.3952966 C63.320818,83.7315598 67.5955915,89.2563251 72.9196842,93.5163958 C77.3881003,97.0917972 82.5956513,99.7763545 88.2753482,101.302144" id="Shape" stroke="#5C4EA0" stroke-width="2.5" fill="#FFFFFF" stroke-linecap="round" transform="translate(99.222222, 60.428087) rotate(-44.000000) translate(-99.222222, -60.428087) "></path>
                    <g id="Group-26" transform="translate(131.000000, 9.000000)" stroke="#5C4EA0" stroke-linecap="round" stroke-linejoin="round" stroke-opacity="0.5" stroke-width="2.5">
                        <path d="M9.30092593,0.675925926 L9.30092593,5.9537037" id="Line"></path>
                        <path d="M9.30092593,12.9907407 L9.30092593,18.2685185" id="Line"></path>
                        <path d="M3.43981481,7 L3.43981481,12.2777778" id="Line-Copy-7" transform="translate(3.439815, 9.638889) rotate(90.000000) translate(-3.439815, -9.638889) "></path>
                        <path d="M15.4398148,7 L15.4398148,12.2777778" id="Line-Copy-6" transform="translate(15.439815, 9.638889) rotate(90.000000) translate(-15.439815, -9.638889) "></path>
                    </g>
                    <path d="M67.2916667,100.277778 L67.2916667,103.796296" id="Line" stroke-opacity="0.5" stroke="#5C4EA0" stroke-width="2.5" stroke-linecap="round" stroke-linejoin="round"></path>
                    <path d="M67.2916667,110.833333 L67.2916667,114.351852" id="Line" stroke-opacity="0.5" stroke="#5C4EA0" stroke-width="2.5" stroke-linecap="round" stroke-linejoin="round"></path>
                    <path d="M72.7592593,105.680556 L72.7592593,109.199074" id="Line-Copy-2" stroke-opacity="0.5" stroke="#5C4EA0" stroke-width="2.5" stroke-linecap="round" stroke-linejoin="round" transform="translate(72.759259, 107.439815) rotate(90.000000) translate(-72.759259, -107.439815) "></path>
                    <path d="M61.7592593,105.680556 L61.7592593,109.199074" id="Line-Copy" stroke-opacity="0.5" stroke="#5C4EA0" stroke-width="2.5" stroke-linecap="round" stroke-linejoin="round" transform="translate(61.759259, 107.439815) rotate(90.000000) translate(-61.759259, -107.439815) "></path>
                    <path d="M89.7167369,35.3496378 C87.9593157,34.5878293 86.1312513,33.959022 84.2451412,33.4758574 C81.3142462,32.7250503 78.243187,32.3259293 75.0792334,32.3259293 C73.7822723,32.3259293 72.5009205,32.3929946 71.2384339,32.5238581 M67.0705597,33.1993836 C65.920957,33.4543512 64.7914718,33.7630569 63.6848545,34.1227409 C62.8675451,34.3883911 62.0627096,34.6818489 61.2714561,35.0020023" id="Shape" stroke-opacity="0.5" stroke="#5C4EA0" stroke-width="2.5" fill="#FFFFFF" stroke-linecap="round" transform="translate(75.494096, 33.837784) rotate(-44.000000) translate(-75.494096, -33.837784) "></path>
                    <g id="vuesax/bold/edit-2" transform="translate(81.000000, 44.000000)">
                        <g id="edit-2">
                            <g>
                                <path d="M4.5,33 C3.88500001,33 3.375,32.49 3.375,31.875 C3.375,31.26 3.88500001,30.75 4.5,30.75 L31.5,30.75 C32.115,30.75 32.625,31.26 32.625,31.875 C32.625,32.49 32.115,33 31.5,33 L4.5,33 Z" id="Vector" fill="#5C4EA0" fill-rule="nonzero"></path>
                                <path d="M19.7858432,5.22243315 L17.970843,7.03743339 C17.820843,7.18743339 17.7608439,7.42743353 17.8208439,7.63743353 C18.9608439,11.6124337 22.1408436,14.7924331 26.1158438,15.9324331 C26.1758438,15.9474331 26.235845,15.9624338 26.295845,15.9624338 C26.460845,15.9624338 26.6108435,15.902434 26.7308435,15.782434 L28.5308447,13.9674339 C30.0158447,12.4974339 30.7358437,11.0724334 30.7358437,9.63243341 C30.7508437,8.1474334 30.0308447,6.70743316 28.5308447,5.22243315 C25.6208446,2.31243306 22.7708432,2.23743314 19.7858432,5.22243315 Z" id="Vector" fill="#5C4EA0" fill-rule="nonzero"></path>
                                <path d="M22.1554785,16.6361718 C21.8254785,16.4411718 21.510478,16.2311717 21.195478,16.0061717 C20.940478,15.8411717 20.6404773,15.6011712 20.3554773,15.3611712 C20.3254773,15.3461712 20.2204772,15.2561718 20.1004772,15.1361718 C19.6054772,14.7161718 19.0504776,14.1761719 18.5554776,13.5761719 C18.5104776,13.5461719 18.4354782,13.4411714 18.3304782,13.3061714 C18.1804782,13.1261714 17.9254781,12.8261711 17.7004781,12.4811711 C17.5204781,12.2561711 17.3104776,11.9261716 17.1154776,11.5961716 C16.8754776,11.1911716 16.6654782,10.7861714 16.4554782,10.3661714 C16.2454782,9.91617134 16.0804776,9.48117189 15.9304776,9.07617188 L6.51047838,18.4961715 C6.31547838,18.6911715 6.13547806,19.0661718 6.09047806,19.3211718 L5.28047809,25.0661702 C5.13047808,26.0861702 5.41547848,27.0461702 6.04547846,27.6911702 C6.58547848,28.2161702 7.33547786,28.5011716 8.14547789,28.5011716 C8.32547789,28.5011716 8.5054781,28.4861706 8.68547809,28.4561706 L14.445478,27.646172 C14.715478,27.601172 15.0904783,27.421171 15.2704782,27.226171 L24.1489421,18.3478452 C24.3442428,18.1525445 24.3442428,17.8358996 24.1489421,17.640599 C24.1009718,17.5926287 24.043743,17.5549199 23.9807379,17.5297671 C23.758934,17.441219 23.5705138,17.3633537 23.4154773,17.2961712 C22.9804773,17.0861712 22.5604785,16.8761718 22.1554785,16.6361718 Z" id="Vector" fill="#5C4EA0" fill-rule="nonzero"></path>
                                <path d="M36,0 L36,36 L0,36 L0,0 L36,0 Z" id="Vector" fill="#1A134C" opacity="0" transform="translate(18.000000, 18.000000) rotate(-180.000000) translate(-18.000000, -18.000000) "></path>
                            </g>
                        </g>
                    </g>
                </g>
            </g>
        </g>
    </g>
</svg>