<svg id="Calque_1" data-name="Calque 1" xmlns="http://www.w3.org/2000/svg" xmlns:xlink="http://www.w3.org/1999/xlink" viewBox="0 0 35.9 47.7"><defs><style>.cls-1{fill:#fff;}.cls-1,.cls-3,.cls-4{fill-rule:evenodd;}.cls-2{mask:url(#mask);}.cls-3{fill:#5c4ea0;}.cls-4{fill:#1fc1e5;}</style><mask id="mask" x="0" y="1.63" width="21.22" height="46.08" maskUnits="userSpaceOnUse"><g transform="translate(0 0)"><g id="mask-2"><polygon id="path-1" class="cls-1" points="0 1.6 21.2 1.6 21.2 47.7 0 47.7 0 1.6"/></g></g></mask></defs><title>logo-without-typo</title><g id="Page-1"><g id="identification"><g id="Group-15"><g id="Group-3"><g class="cls-2"><path id="Fill-1" class="cls-3" d="M21.2,42.6V21.5c-.1-3.1-.8-5.4-3.8-8.3L5.1,2.4a2.8,2.8,0,0,0-4.2.4A6.3,6.3,0,0,0,0,6.3V20.2l13.4-2.4.6,3.5L0,23.7v2.6l8.8-1.6.6,3.5L.2,29.8a10.1,10.1,0,0,0,.7,2.3l14.3-2.6.5,3.5L3.3,35.2l1.2,1L17.9,47.3a1.9,1.9,0,0,0,2.3.1c1.1-.8,1-2.7,1-4.8" transform="translate(0 0)"/></g></g><path id="Fill-4" class="cls-4" d="M30.3,8.4a2.8,2.8,0,0,1-2.8-2.8,2.9,2.9,0,0,1,2.8-2.8,2.8,2.8,0,0,1,2.8,2.8,2.7,2.7,0,0,1-2.8,2.8M30.8,0H6.7L8.5,1.2,20.2,11.5c2.6,2.7,3.7,4.5,4.2,7.3a7.7,7.7,0,0,1,.2,1.5V31.2h6.2a5.1,5.1,0,0,0,5.1-5.1V5.1A5.1,5.1,0,0,0,30.8,0" transform="translate(0 0)"/></g></g></g></svg>