<?xml version="1.0" encoding="UTF-8"?>
<svg width="184px" height="48px" viewBox="0 0 184 48" version="1.1" xmlns="http://www.w3.org/2000/svg" xmlns:xlink="http://www.w3.org/1999/xlink">
    <!-- Generator: sketchtool 52.6 (67491) - http://www.bohemiancoding.com/sketch -->
    <title>5A011962-BDA2-459C-810E-25EE542AD823</title>
    <desc>Created with sketchtool.</desc>
    <defs>
        <polygon id="path-1" points="0 0.244390922 21.2168426 0.244390922 21.2168426 46.3255814 0 46.3255814"></polygon>
        <polygon id="path-3" points="0.327683721 0.504669767 17.0667907 0.504669767 17.0667907 24.7315397 0.327683721 24.7315397"></polygon>
    </defs>
    <g id="Page-1" stroke="none" stroke-width="1" fill="none" fill-rule="evenodd">
        <g id="identification" transform="translate(-41.000000, -103.000000)">
            <g id="Group-15" transform="translate(41.000000, 103.000000)">
                <g id="Group-3" transform="translate(0.000000, 1.382288)">
                    <mask id="mask-2" fill="white">
                        <use xlink:href="#path-1"></use>
                    </mask>
                    <g id="Clip-2"></g>
                    <path d="M21.2156651,41.1752372 L21.2156651,20.1512372 C21.0928744,16.9793302 20.3527814,14.706586 17.3924093,11.8517023 L5.10329302,0.970772093 C3.85585116,-0.133786047 1.89901395,0.0342139535 0.927851163,1.38714419 C0.288781395,2.27793488 -0.000334883721,3.51867907 -0.000334883721,4.91905116 L-0.000334883721,18.7955163 L13.4407814,16.4675163 L13.9654326,19.9648186 L-0.000334883721,22.318493 L-0.000334883721,24.9149581 L8.8484093,23.3276093 L9.37306047,26.8243535 L0.1872,28.4139349 C0.325618605,29.2020279 0.556130233,29.9532837 0.914455814,30.6922605 L15.2117581,28.102493 L15.7369674,31.6003535 L3.29436279,33.8055628 C3.65547907,34.1471442 4.05175814,34.4937488 4.49324651,34.8481674 L17.895293,45.8820279 C18.5399442,46.4128186 19.4742698,46.486493 20.1529674,45.9992372 C21.2949209,45.1787721 21.2156651,43.2755163 21.2156651,41.1752372" id="Fill-1" fill="#5C4EA0" mask="url(#mask-2)"></path>
                </g>
                <path d="M30.3154047,8.40747907 C28.7715907,8.40747907 27.5202419,7.15613023 27.5202419,5.61231628 C27.5202419,4.06906047 28.7715907,2.81715349 30.3154047,2.81715349 C31.8592186,2.81715349 33.1105674,4.06906047 33.1105674,5.61231628 C33.1105674,7.15613023 31.8592186,8.40747907 30.3154047,8.40747907 M30.8361488,0.000223255814 L6.74852093,0.000223255814 C6.9952186,0.1152 8.2515907,0.971944186 8.46535814,1.16115349 L20.1768,11.4716651 C22.7994977,14.2149209 23.888986,15.9725023 24.4197767,18.7738047 C24.516893,19.2884093 24.5604279,19.8130605 24.5604279,20.3377116 L24.5604279,31.2074791 L30.8361488,31.2074791 C33.6363349,31.2074791 35.9280558,28.9163163 35.9280558,26.1155721 L35.9280558,5.09213023 C35.9280558,2.29138605 33.6363349,0.000223255814 30.8361488,0.000223255814" id="Fill-4" fill="#1FC1E5"></path>
            </g>
        </g>
    </g>
</svg>