<?xml version="1.0" encoding="UTF-8"?>
<svg width="184px" height="48px" viewBox="0 0 184 48" version="1.1" xmlns="http://www.w3.org/2000/svg" xmlns:xlink="http://www.w3.org/1999/xlink">
    <!-- Generator: sketchtool 52.6 (67491) - http://www.bohemiancoding.com/sketch -->
    <title>5A011962-BDA2-459C-810E-25EE542AD823</title>
    <desc>Created with sketchtool.</desc>
    <defs>
        <polygon id="path-1" points="0 0.244390922 21.2168426 0.244390922 21.2168426 46.3255814 0 46.3255814"></polygon>
        <polygon id="path-3" points="0.327683721 0.504669767 17.0667907 0.504669767 17.0667907 24.7315397 0.327683721 24.7315397"></polygon>
    </defs>
    <g id="Page-1" stroke="none" stroke-width="1" fill="none" fill-rule="evenodd">
        <g id="identification" transform="translate(-41.000000, -103.000000)">
            <g id="Group-15" transform="translate(41.000000, 103.000000)">
                <g id="Group-3" transform="translate(0.000000, 1.382288)">
                    <mask id="mask-2" fill="white">
                        <use xlink:href="#path-1"></use>
                    </mask>
                    <g id="Clip-2"></g>
                    <path d="M21.2156651,41.1752372 L21.2156651,20.1512372 C21.0928744,16.9793302 20.3527814,14.706586 17.3924093,11.8517023 L5.10329302,0.970772093 C3.85585116,-0.133786047 1.89901395,0.0342139535 0.927851163,1.38714419 C0.288781395,2.27793488 -0.000334883721,3.51867907 -0.000334883721,4.91905116 L-0.000334883721,18.7955163 L13.4407814,16.4675163 L13.9654326,19.9648186 L-0.000334883721,22.318493 L-0.000334883721,24.9149581 L8.8484093,23.3276093 L9.37306047,26.8243535 L0.1872,28.4139349 C0.325618605,29.2020279 0.556130233,29.9532837 0.914455814,30.6922605 L15.2117581,28.102493 L15.7369674,31.6003535 L3.29436279,33.8055628 C3.65547907,34.1471442 4.05175814,34.4937488 4.49324651,34.8481674 L17.895293,45.8820279 C18.5399442,46.4128186 19.4742698,46.486493 20.1529674,45.9992372 C21.2949209,45.1787721 21.2156651,43.2755163 21.2156651,41.1752372" id="Fill-1" fill="#5C4EA0" mask="url(#mask-2)"></path>
                </g>
                <path d="M30.3154047,8.40747907 C28.7715907,8.40747907 27.5202419,7.15613023 27.5202419,5.61231628 C27.5202419,4.06906047 28.7715907,2.81715349 30.3154047,2.81715349 C31.8592186,2.81715349 33.1105674,4.06906047 33.1105674,5.61231628 C33.1105674,7.15613023 31.8592186,8.40747907 30.3154047,8.40747907 M30.8361488,0.000223255814 L6.74852093,0.000223255814 C6.9952186,0.1152 8.2515907,0.971944186 8.46535814,1.16115349 L20.1768,11.4716651 C22.7994977,14.2149209 23.888986,15.9725023 24.4197767,18.7738047 C24.516893,19.2884093 24.5604279,19.8130605 24.5604279,20.3377116 L24.5604279,31.2074791 L30.8361488,31.2074791 C33.6363349,31.2074791 35.9280558,28.9163163 35.9280558,26.1155721 L35.9280558,5.09213023 C35.9280558,2.29138605 33.6363349,0.000223255814 30.8361488,0.000223255814" id="Fill-4" fill="#1FC1E5"></path>
                <path d="M113.982921,16.5511814 C113.982921,17.2047628 114.32227,17.7288558 115.001526,18.1234605 C115.680223,18.517507 116.489526,18.853507 117.429433,19.1292279 C118.368223,19.4049488 119.313712,19.6829023 120.264223,19.961414 C121.214735,20.2410419 122.019014,20.7645767 122.678177,21.5314605 C123.336781,22.2989023 123.666642,23.2840186 123.666642,24.4873674 C123.666642,26.0557395 123.061619,27.3115535 121.851014,28.2570419 C120.640409,29.2025302 119.08934,29.6752744 117.199479,29.6752744 C115.51613,29.6752744 114.075014,29.3063442 112.876688,28.5684837 C111.677247,27.8306233 110.823851,26.8510884 110.31706,25.6287628 L112.910735,24.1418791 C113.187572,24.9718326 113.706642,25.6287628 114.466828,26.1132279 C115.227572,26.5971349 116.138456,26.8393674 117.199479,26.8393674 C118.190177,26.8393674 119.008967,26.6496 119.654735,26.269507 C120.299944,25.889414 120.623107,25.2972279 120.623107,24.4912744 C120.623107,23.8237395 120.288223,23.2890419 119.619014,22.8860651 C118.949247,22.4825302 118.144967,22.1409488 117.205619,21.8585302 C116.26627,21.5766698 115.320781,21.2925767 114.370828,21.0073674 C113.420316,20.7221581 112.611014,20.2109023 111.942921,19.4724837 C111.273712,18.7351814 110.939944,17.7902512 110.939944,16.6365767 C110.939944,15.1385302 111.521526,13.9050419 112.686363,12.9361116 C113.850084,11.9682977 115.308502,11.4838326 117.06106,11.4838326 C118.467014,11.4838326 119.717805,11.8008558 120.813433,12.4349023 C121.907944,13.069507 122.732874,13.9513674 123.285991,15.0804837 L120.761526,16.4987163 C120.138642,15.0235535 118.905153,14.2851349 117.06106,14.2851349 C116.207665,14.2851349 115.481526,14.4827163 114.882084,14.8767628 C114.282084,15.2713674 113.982921,15.829507 113.982921,16.5511814 Z M103.864409,29.1941581 L106.655107,29.1941581 L106.655107,11.8918326 L103.864409,11.8918326 L103.864409,29.1941581 Z M105.33734,8.78634419 C104.760781,8.78634419 104.276316,8.59043721 103.884502,8.19862326 C103.492688,7.8068093 103.296781,7.33350698 103.296781,6.7803907 C103.296781,6.22727442 103.492688,5.74894884 103.884502,5.34541395 C104.276316,4.94187907 104.760781,4.7403907 105.33734,4.7403907 C105.890456,4.7403907 106.3632,4.94187907 106.755572,5.34541395 C107.146828,5.74894884 107.343293,6.22727442 107.343293,6.7803907 C107.343293,7.33350698 107.146828,7.8068093 106.755572,8.19862326 C106.3632,8.59043721 105.890456,8.78634419 105.33734,8.78634419 Z M98.0787349,11.8918326 L101.295293,11.8918326 L94.239293,30.2562977 C93.5014326,32.2153674 92.4694326,33.7083907 91.1438512,34.7348093 C89.8182698,35.7601116 88.2912,36.2155535 86.5620837,36.1005767 L86.5620837,33.2998326 C88.6740837,33.4605767 90.2245953,32.2829023 91.2119442,29.7645767 L91.5423628,29.1149023 L84.003014,11.8918326 L87.2195721,11.8918326 L92.9851535,25.1482047 L98.0787349,11.8918326 Z M83.2132465,7.27434419 C80.2361302,7.03043721 78.7481302,8.29294884 78.7481302,11.0613209 L78.7481302,11.8918326 L83.2132465,11.8918326 L83.2132465,14.6825302 L78.1899907,14.6825302 L78.1899907,29.1941581 L75.399293,29.1941581 L75.399293,14.6825302 L68.7016186,14.6825302 L68.7016186,29.1941581 L65.9109209,29.1941581 L65.9109209,14.6825302 L63.1202233,14.6825302 L63.1202233,11.8918326 L65.9109209,11.8918326 L65.9109209,11.3733209 C65.9109209,9.04476279 66.5823628,7.28104186 67.9269209,6.0816 C69.2709209,4.88327442 71.2037581,4.36476279 73.7248744,4.52550698 L73.7248744,7.43062326 C70.7483163,7.17722791 69.2597581,8.49164651 69.2597581,11.3733209 L69.2597581,11.8918326 L75.399293,11.8918326 L75.399293,11.0278326 C75.399293,8.69927442 76.0679442,6.93499535 77.4069209,5.73611163 C78.7442233,4.53778605 80.6804093,4.01871628 83.2132465,4.1800186 L83.2132465,7.27434419 Z M50.283014,26.4034605 L61.4458047,26.4034605 L61.4458047,29.1941581 L46.3760372,29.1941581 L46.3760372,5.19415814 L60.8876651,5.19415814 L60.8876651,7.98485581 L50.283014,7.98485581 L50.283014,15.2406698 L60.3295256,15.2406698 L60.3295256,18.589507 L50.283014,18.589507 L50.283014,26.4034605 Z" id="Fill-6" fill="#1A134C"></path>
                <path d="M136.185823,18.2621023 C137.846288,18.2621023 139.212056,17.720707 140.284242,16.6368 C141.356428,15.552893 141.892242,14.180986 141.892242,12.5216372 C141.892242,10.8382884 141.356428,9.4552186 140.284242,8.37131163 C139.212056,7.28796279 137.846288,6.7460093 136.185823,6.7460093 L129.78787,6.7460093 L129.78787,18.2621023 L136.185823,18.2621023 Z M136.185823,5.01689302 C138.353079,5.01689302 140.150847,5.73186977 141.5808,7.16070698 C143.010753,8.59066047 143.725172,10.3772651 143.725172,12.5216372 C143.725172,14.6660093 143.010753,16.4464744 141.5808,17.864707 C140.150847,19.2823814 138.353079,19.9917767 136.185823,19.9917767 L129.78787,19.9917767 L129.78787,29.2256372 L127.95494,29.2256372 L127.95494,5.01689302 L136.185823,5.01689302 Z" id="Fill-8" fill="#1A134C"></path>
                <path d="M149.275423,25.8013953 C150.693656,27.231907 152.427795,27.9457674 154.480633,27.9457674 C156.532353,27.9457674 158.262028,27.231907 159.667981,25.8013953 C161.074493,24.372 161.777749,22.6317209 161.777749,20.58 C161.777749,18.5277209 161.074493,16.7874419 159.667981,15.3574884 C158.262028,13.928093 156.532353,13.2131163 154.480633,13.2131163 C152.427795,13.2131163 150.693656,13.928093 149.275423,15.3574884 C147.857749,16.7874419 147.148353,18.5277209 147.148353,20.58 C147.148353,22.6317209 147.857749,24.372 149.275423,25.8013953 Z M161.777749,11.9333023 L163.542028,11.9333023 L163.542028,29.2255814 L161.777749,29.2255814 L161.777749,25.3174884 C161.03933,26.6547907 160.025191,27.7035349 158.734214,28.4642791 C157.443237,29.2255814 155.979237,29.6056744 154.342214,29.6056744 C151.874679,29.6056744 149.76547,28.736093 148.01347,26.9946977 C146.260912,25.2544186 145.384633,23.1156279 145.384633,20.58 C145.384633,18.043814 146.260912,15.9055814 148.01347,14.164186 C149.76547,12.4233488 151.874679,11.5532093 154.342214,11.5532093 C155.979237,11.5532093 157.443237,11.9333023 158.734214,12.6946047 C160.025191,13.4553488 161.03933,14.5046512 161.777749,15.8413953 L161.777749,11.9333023 Z" id="Fill-10" fill="#1A134C"></path>
                <g id="Group-14" transform="translate(166.325581, 11.428800)">
                    <mask id="mask-4" fill="white">
                        <use xlink:href="#path-3"></use>
                    </mask>
                    <g id="Clip-13"></g>
                    <path d="M15.1987535,0.504669767 L17.0668465,0.504669767 L9.59670698,19.3876465 C8.92805581,21.0938791 7.98256744,22.4362047 6.7608,23.4168558 C5.53791628,24.3963907 4.20117209,24.8283907 2.74833488,24.713414 L2.74833488,23.0881116 C3.85568372,23.1796465 4.85307907,22.8631814 5.74107907,22.1376 C6.62907907,21.4109023 7.34963721,20.3789023 7.90275349,19.0421581 L8.27614884,18.0933209 L0.327683721,0.504669767 L2.1952186,0.504669767 L9.16303256,15.8395535 L15.1987535,0.504669767 Z" id="Fill-12" fill="#1A134C" mask="url(#mask-4)"></path>
                </g>
            </g>
        </g>
    </g>
</svg>