<svg id="Calque_1" data-name="Calque 1" xmlns="http://www.w3.org/2000/svg" xmlns:xlink="http://www.w3.org/1999/xlink" viewBox="0 0 181.3 42.4"><defs><style>.cls-1{fill:#fff;}.cls-1,.cls-2{fill-rule:evenodd;}.cls-2{fill:#1a134c;}.cls-3{mask:url(#mask);}</style><mask id="mask" x="159.16" y="10.3" width="22.15" height="32.06" maskUnits="userSpaceOnUse"><g transform="translate(-1.1 -2.2)"><g id="mask-4"><polygon id="path-3" class="cls-1" points="160.2 12.4 182.4 12.4 182.4 44.5 160.2 44.5 160.2 12.4"/></g></g></mask></defs><title>logo_typo</title><g id="Page-1"><g id="identification"><g id="Group-15"><path id="Fill-6" class="cls-2" d="M90.5,18.6a2.3,2.3,0,0,0,1.4,2A13.4,13.4,0,0,0,95.1,22l3.8,1.1a5.4,5.4,0,0,1,3.1,2.1,5.6,5.6,0,0,1,1.4,3.9,6.2,6.2,0,0,1-2.4,5,10.1,10.1,0,0,1-6.2,1.8,11.5,11.5,0,0,1-5.7-1.4,8.5,8.5,0,0,1-3.4-3.9l3.4-2a4.9,4.9,0,0,0,2.1,2.6,6.9,6.9,0,0,0,6.8.2,2.5,2.5,0,0,0,1.3-2.3A2.5,2.5,0,0,0,98,26.9a16.3,16.3,0,0,0-3.2-1.3l-3.7-1.1a7.2,7.2,0,0,1-3.3-2.1,5.7,5.7,0,0,1-1.3-3.7,6.2,6.2,0,0,1,2.3-4.9,8.8,8.8,0,0,1,5.8-1.9,10.3,10.3,0,0,1,5,1.2,9.3,9.3,0,0,1,3.3,3.5l-3.4,1.9c-.8-2-2.4-2.9-4.9-2.9a5.4,5.4,0,0,0-2.9.7A2.7,2.7,0,0,0,90.5,18.6ZM77.2,35.3h3.6V12.4H77.2Zm1.9-27a2.6,2.6,0,0,1-1.9-.8,2.6,2.6,0,0,1-.8-1.9,2.9,2.9,0,0,1,.8-1.9,2.6,2.6,0,0,1,1.9-.8,2.7,2.7,0,0,1,1.9.8,2.9,2.9,0,0,1,.8,1.9A2.6,2.6,0,0,1,81,7.5,2.7,2.7,0,0,1,79.1,8.3Zm-9.6,4.1h4.3L64.4,36.7a12.5,12.5,0,0,1-4.1,5.9,8.1,8.1,0,0,1-6,1.8V40.7c2.8.2,4.8-1.3,6.1-4.7l.4-.8L50.9,12.4h4.2l7.7,17.5ZM49.8,6.3c-3.9-.3-5.9,1.3-5.9,5v1.1h5.9v3.7H43.2V35.3H39.5V16.1H30.6V35.3H26.9V16.1H23.2V12.4h3.7v-.7c0-3.1.9-5.4,2.7-7s4.3-2.3,7.7-2.1V6.5c-4-.3-5.9,1.4-5.9,5.2v.7h8.1V11.3c0-3.1.9-5.5,2.6-7.1s4.4-2.2,7.7-2ZM6.3,31.6H21v3.7H1.1V3.5H20.3V7.2H6.3v9.6H19.5v4.5H6.3Z" transform="translate(-1.1 -2.2)"/><path id="Fill-8" class="cls-2" d="M119.9,20.8a7.3,7.3,0,0,0,5.4-2.1,7.4,7.4,0,0,0,2.2-5.5,7.4,7.4,0,0,0-2.2-5.5,7.3,7.3,0,0,0-5.4-2.1h-8.4V20.8Zm0-17.5a9.6,9.6,0,0,1,10,9.9,9.5,9.5,0,0,1-2.8,7.1,9.7,9.7,0,0,1-7.2,2.8h-8.4V35.3H109V3.3Z" transform="translate(-1.1 -2.2)"/><path id="Fill-10" class="cls-2" d="M137.2,30.8a9.7,9.7,0,0,0,16.6-6.9A9.7,9.7,0,0,0,137.2,17a9.9,9.9,0,0,0,0,13.8Zm16.6-18.4h2.3V35.3h-2.3V30.2a11.2,11.2,0,0,1-4,4.1,12,12,0,0,1-14.2-1.9,11.7,11.7,0,0,1-3.5-8.5,11.5,11.5,0,0,1,3.5-8.5,11.5,11.5,0,0,1,8.4-3.5,10.6,10.6,0,0,1,5.8,1.6,11.2,11.2,0,0,1,4,4.1Z" transform="translate(-1.1 -2.2)"/><g id="Group-14"><g class="cls-3"><path id="Fill-12" class="cls-2" d="M179.9,12.4h2.5l-9.9,25a12.7,12.7,0,0,1-3.7,5.4,7.8,7.8,0,0,1-5.4,1.7V42.3a5.3,5.3,0,0,0,4-1.2,11.6,11.6,0,0,0,2.9-4.1l.5-1.3L160.2,12.4h2.5l9.2,20.3Z" transform="translate(-1.1 -2.2)"/></g></g></g></g></g></svg>