<svg id="Calque_1" data-name="Calque 1" xmlns="http://www.w3.org/2000/svg" viewBox="0 0 181.3 42.4"><defs><style>.cls-1{fill:#fff;fill-rule:evenodd;}</style></defs><title>logo_typo_white</title><g id="Page-1"><g id="identification"><g id="Group-15"><path id="Fill-6" class="cls-1" d="M89.4,16.4a2.2,2.2,0,0,0,1.4,2A13,13,0,0,0,94,19.8l3.8,1.1a5.3,5.3,0,0,1,3.1,2.1,6.2,6.2,0,0,1,1.4,3.9,6.4,6.4,0,0,1-2.4,5,9.8,9.8,0,0,1-6.2,1.8A11.2,11.2,0,0,1,88,32.3a8.6,8.6,0,0,1-3.4-3.9l3.4-2A4.9,4.9,0,0,0,90.1,29a6.9,6.9,0,0,0,6.8.2,2.6,2.6,0,0,0,1.3-2.3,2.5,2.5,0,0,0-1.3-2.2,17.9,17.9,0,0,0-3.2-1.3L90,22.3a7.2,7.2,0,0,1-3.3-2.1,5.6,5.6,0,0,1-1.3-3.7,6.2,6.2,0,0,1,2.3-4.9,8.6,8.6,0,0,1,5.8-1.9,10.8,10.8,0,0,1,5,1.2,10,10,0,0,1,3.3,3.5l-3.4,1.9c-.8-2-2.4-2.9-4.9-2.9a5.9,5.9,0,0,0-2.9.7A2.7,2.7,0,0,0,89.4,16.4ZM76.1,33.1h3.6V10.2H76.1ZM78,6.1a2.7,2.7,0,0,1-2.7-2.7,2.7,2.7,0,0,1,5.4,0A2.7,2.7,0,0,1,78,6.1Zm-9.6,4.1h4.3L63.3,34.5a12.9,12.9,0,0,1-4.1,5.9,8.1,8.1,0,0,1-6,1.8V38.5c2.8.2,4.8-1.3,6.1-4.7l.4-.8L49.8,10.2H54l7.7,17.5ZM48.7,4.1c-3.9-.3-5.9,1.3-5.9,5v1.1h5.9v3.7H42.1V33.1H38.4V13.9H29.5V33.1H25.8V13.9H22.1V10.2h3.7V9.5c0-3.1.9-5.4,2.7-7S32.8.2,36.2.4V4.3c-4-.3-5.9,1.4-5.9,5.2v.7h8.1V9.1c0-3.1.9-5.5,2.6-7.1s4.4-2.2,7.7-2ZM5.2,29.4H19.9v3.7H0V1.3H19.2V5H5.2v9.6H18.4v4.5H5.2Z" transform="translate(0 0)"/><path id="Fill-8" class="cls-1" d="M118.8,18.6a7.2,7.2,0,0,0,5.4-2.1,7,7,0,0,0,2.2-5.5,7,7,0,0,0-2.2-5.5,7.2,7.2,0,0,0-5.4-2.1h-8.4V18.6Zm0-17.5a9.6,9.6,0,0,1,10,9.2V11a9.4,9.4,0,0,1-2.8,7.1,9.6,9.6,0,0,1-7.2,2.8h-8.4V33.1h-2.5V1.1Z" transform="translate(0 0)"/><path id="Fill-10" class="cls-1" d="M136.1,28.6a9.8,9.8,0,1,0,0-13.8A10,10,0,0,0,136.1,28.6Zm16.6-18.4H155V33.1h-2.3V28a11.2,11.2,0,0,1-4,4.1,12,12,0,0,1-14.2-1.9,11.7,11.7,0,0,1-3.5-8.5,11.3,11.3,0,0,1,3.5-8.5,11.5,11.5,0,0,1,8.4-3.5,10.8,10.8,0,0,1,5.8,1.6,11.2,11.2,0,0,1,4,4.1Z" transform="translate(0 0)"/><g id="Group-14"><path id="Fill-12" class="cls-1" d="M178.8,10.2h2.5l-9.9,25a11.9,11.9,0,0,1-3.7,5.4,8.1,8.1,0,0,1-5.4,1.7V40.1a5.3,5.3,0,0,0,4-1.2,10.9,10.9,0,0,0,2.9-4.1l.5-1.3L159.1,10.2h2.5l9.2,20.3Z" transform="translate(0 0)"/></g></g></g></g></svg>